<?xml version="1.0" standalone="no"?>
<!DOCTYPE svg PUBLIC "-//W3C//DTD SVG 20010904//EN"
 "http://www.w3.org/TR/2001/REC-SVG-20010904/DTD/svg10.dtd">
<svg version="1.0" xmlns="http://www.w3.org/2000/svg"
 width="373.000000pt" height="373.000000pt" viewBox="0 0 373.000000 373.000000"
 preserveAspectRatio="xMidYMid meet">
<metadata>
Created by potrace 1.14, written by Peter Selinger 2001-2017
</metadata>
<g transform="translate(0.000000,373.000000) scale(0.100000,-0.100000)"
fill="#000000" stroke="none">
<path d="M1827 3684 c-1 -1 -42 -5 -91 -8 -49 -4 -92 -9 -96 -11 -4 -2 -22 -7
-41 -10 -53 -9 -143 -36 -156 -47 -7 -6 -13 -8 -13 -5 0 12 -209 -86 -220
-102 -3 -5 -23 -19 -45 -33 -22 -14 -53 -37 -68 -52 -15 -14 -30 -26 -32 -26
-7 0 -95 -92 -130 -135 -34 -41 -116 -171 -120 -190 -8 -38 -18 -65 -24 -65
-4 0 -8 -6 -9 -12 0 -7 -10 -47 -22 -88 -16 -55 -22 -105 -23 -190 -2 -181 18
-275 95 -425 38 -74 93 -163 108 -175 4 -3 19 -23 33 -45 15 -22 78 -119 142
-215 63 -96 115 -178 115 -183 0 -4 16 -32 35 -62 19 -30 32 -55 29 -55 -3 0
4 -13 15 -29 12 -16 21 -34 21 -40 0 -6 5 -11 10 -11 6 0 9 -3 8 -8 0 -4 7
-25 16 -47 62 -141 68 -154 72 -175 4 -26 14 -74 19 -95 7 -35 20 -149 20
-187 0 -21 3 -38 6 -38 4 0 6 -10 5 -22 -1 -13 2 -38 7 -57 6 -24 5 -36 -4
-42 -18 -11 -19 -91 -1 -112 20 -22 10 -31 -40 -36 -13 -2 -1 -83 13 -92 12
-8 12 -11 -1 -22 -23 -18 -22 -217 0 -217 9 0 16 -9 17 -19 1 -14 -3 -18 -13
-14 -15 6 -15 6 -18 -49 -2 -32 1 -39 25 -47 15 -5 30 -6 34 -3 3 4 3 -1 0 -9
-5 -13 2 -16 32 -15 21 1 41 6 45 11 5 6 8 6 8 -2 0 -6 11 -10 25 -8 14 1 25
-1 25 -6 0 -5 6 -6 13 -4 8 4 12 -7 10 -36 -1 -42 6 -49 50 -54 37 -4 38 -5
32 -14 -3 -5 1 -16 9 -24 12 -11 43 -14 135 -14 66 0 119 3 117 6 -2 3 0 15 4
27 7 17 16 21 44 19 38 -3 41 1 38 68 -1 29 -2 29 83 30 37 1 56 7 75 24 23
22 25 30 26 121 1 53 -3 102 -8 109 -6 7 -6 19 0 30 5 10 8 59 7 108 -3 106
-3 105 -12 104 -28 -5 -33 2 -19 24 24 39 27 72 7 110 -10 20 -15 39 -11 44 5
4 11 42 14 83 4 41 9 91 11 110 3 19 7 58 10 85 9 77 42 191 75 257 17 33 30
66 30 73 0 7 3 15 8 17 4 2 21 30 38 63 50 95 68 128 77 139 25 35 137 219
137 226 0 5 4 10 8 12 9 3 141 193 175 251 11 17 26 37 35 44 10 7 13 13 7 13
-6 0 -6 3 1 8 38 26 143 326 131 373 -3 11 -2 21 1 23 9 5 7 122 -2 196 -4 30
-21 93 -37 140 -16 47 -30 90 -32 95 -1 6 -15 32 -30 59 -15 27 -27 52 -27 56
0 4 -9 15 -20 25 -11 10 -18 20 -16 23 18 18 -276 292 -314 292 -5 0 -10 5
-10 11 0 5 -4 8 -9 5 -5 -4 -11 -3 -13 2 -3 7 -124 73 -133 72 -3 0 -22 7 -42
15 -21 9 -44 17 -53 19 -8 1 -34 8 -58 15 -24 7 -55 14 -70 17 -15 2 -52 8
-82 13 -47 8 -218 19 -223 15z"/>
</g>
</svg>
